<svg width="64" height="57" viewBox="0 0 64 57" fill="none" xmlns="http://www.w3.org/2000/svg">
<path d="M64 37.4774C64 41.6171 60.6442 44.9729 56.5045 44.9729L7.4955 44.9729C3.35585 44.9729 0 41.6171 0 37.4774L64 37.4774Z" fill="#D48F2F"/>
<path d="M44.9343 55.8878C45.3367 55.386 45.2578 54.6503 44.7353 54.2751C41.0544 51.6318 36.6351 50.1892 32.0845 50.1625C27.5338 50.1358 23.0979 51.5265 19.3862 54.1263C18.8594 54.4953 18.7718 55.2301 19.1683 55.7366C19.5648 56.2431 20.295 56.3291 20.8241 55.9634C24.1204 53.6854 28.0454 52.468 32.0708 52.4917C36.0962 52.5153 40.0067 53.7787 43.276 56.0952C43.8008 56.467 44.5319 56.3896 44.9343 55.8878Z" fill="#D48F2F"/>
<rect x="28.2522" y="44.9729" width="1.72973" height="5.76577" fill="#D48F2F"/>
<rect x="34.0181" y="44.9729" width="1.72973" height="5.76577" fill="#D48F2F"/>
<path d="M0 8C0 3.58172 3.58172 0 8 0H56C60.4183 0 64 3.58172 64 8V35.1712H0V8Z" fill="#D48F2F"/>
<path d="M42.3198 16.7197C42.9865 17.1046 42.9865 18.0668 42.3198 18.4517L27.5901 26.9559C26.9234 27.3408 26.0901 26.8597 26.0901 26.0899V9.08147C26.0901 8.31167 26.9234 7.83055 27.5901 8.21545L42.3198 16.7197Z" fill="white"/>
</svg>
